# xmcd
#
# Track frame offsets: 
#        150
#        3513
#        30461
#        54984
#        62875
#        76945
#        101444
#        112909
#        135891
#        154148
#        167853
#        177351
#
# Disc length: 2604 seconds
#
# Revision: 2
# Processed by: cddbd v1.5.2PL0 Copyright (c) Steve Scherf et al.
# Submitted via: ExactAudioCopy v0.99pb4
#
DISCID=890a2a0c
DTITLE=Аркадий Северный - Привет Киеву. Часть 1
DYEAR=2000
DGENRE=Chanson
TTITLE0=Вступление
TTITLE1=Без Подола Киев Невозможен
TTITLE2=Тетя Хая
TTITLE3=Еврейская Свадебная
TTITLE4=Три Еврейки
TTITLE5=Клавочка
TTITLE6=Главному Антисемиту Аркадию Северному
TTITLE7=Частушки
TTITLE8=Пианист
TTITLE9=Украинский Привет
TTITLE10=Без Названия
TTITLE11=В Одессе Раз, В Кино...
EXTD=
EXTT0=
EXTT1=
EXTT2=
EXTT3=
EXTT4=
EXTT5=
EXTT6=
EXTT7=
EXTT8=
EXTT9=
EXTT10=
EXTT11=
PLAYORDER=
